<svg width="109" height="109" viewBox="0 0 109 109" fill="none" xmlns="http://www.w3.org/2000/svg">
<path d="M91.4635 37.1302C91.4635 37.0469 91.4635 36.9636 91.4375 36.875C91.401 36.1459 91.2969 35.4219 91.125 34.7136C90.9531 34 90.7135 33.3125 90.4115 32.6459C90.1042 31.9792 89.7396 31.349 89.3177 30.7552C88.8906 30.1563 88.4167 29.6042 87.8854 29.099C87.3542 28.5938 86.7813 28.1459 86.1667 27.75C85.5521 27.3542 84.9063 27.0157 84.224 26.7448C83.5469 26.4688 82.849 26.2657 82.1302 26.125C81.4115 25.9844 80.6875 25.9115 79.9531 25.9115H28.6979C27.9687 25.9115 27.2396 25.9844 26.5208 26.125C25.8021 26.2657 25.1042 26.4688 24.4271 26.7448C23.7448 27.0157 23.099 27.3542 22.4844 27.75C21.8698 28.1459 21.2969 28.5938 20.7656 29.099C20.2396 29.6042 19.7604 30.1563 19.3385 30.7552C18.9115 31.349 18.5469 31.9792 18.2448 32.6459C17.9375 33.3125 17.6979 34 17.526 34.7136C17.3542 35.4219 17.25 36.1459 17.2135 36.875C17.2135 36.9636 17.1979 37.0469 17.1875 37.1355C17.1771 37.224 17.1562 37.349 17.1562 37.4532V71.5521C17.1562 72.3125 17.2292 73.0625 17.3802 73.8021C17.526 74.5469 17.75 75.2709 18.0365 75.9688C18.3281 76.6667 18.6823 77.3334 19.1042 77.9636C19.526 78.5938 20.0052 79.1771 20.5417 79.7084C21.0781 80.2448 21.6615 80.724 22.2865 81.1459C22.9167 81.5678 23.5833 81.9219 24.2812 82.2136C24.9844 82.5053 25.7031 82.724 26.4479 82.8698C27.1927 83.0209 27.9427 83.0938 28.6979 83.0938H79.9531C80.7135 83.0938 81.4635 83.0209 82.2031 82.8698C82.9479 82.724 83.6667 82.5053 84.3698 82.2136C85.0677 81.9219 85.7344 81.5678 86.3646 81.1459C86.9948 80.724 87.5729 80.2448 88.1094 79.7084C88.6458 79.1719 89.125 78.5938 89.5469 77.9636C89.9688 77.3334 90.3229 76.6667 90.6146 75.9688C90.9063 75.2657 91.125 74.5469 91.2708 73.8021C91.4219 73.0625 91.4948 72.3125 91.4948 71.5521V37.4532C91.4948 37.349 91.4688 37.2396 91.4635 37.1302ZM28.6979 31.6302H79.9531C80.5833 31.6302 81.1979 31.7344 81.7969 31.9375C82.3906 32.1355 82.9427 32.4271 83.4479 32.8073C83.9479 33.1927 84.375 33.6407 84.7344 34.1615C85.0885 34.6823 85.3542 35.2448 85.526 35.8542L54.3281 54.0521L23.125 35.8542C23.2969 35.2448 23.5625 34.6823 23.9167 34.1615C24.276 33.6407 24.7031 33.1927 25.2083 32.8073C25.7083 32.4271 26.2604 32.1355 26.8542 31.9375C27.4531 31.7344 28.0677 31.6302 28.6979 31.6302ZM79.9531 77.375H28.6979C28.3177 77.375 27.9375 77.3386 27.5625 77.2657C27.1875 77.1875 26.8229 77.0782 26.4687 76.9323C26.1198 76.7865 25.7812 76.6042 25.4635 76.3907C25.1458 76.1823 24.8542 75.9375 24.5833 75.6667C24.3125 75.4011 24.0729 75.1042 23.8594 74.7865C23.6458 74.4688 23.4687 74.1355 23.3177 73.7813C23.1719 73.4271 23.0625 73.0625 22.9896 72.6875C22.9115 72.3125 22.875 71.9375 22.875 71.5521V42.3282L52.8958 59.8334C53.3438 60.0938 53.8229 60.224 54.3385 60.224C54.8542 60.224 55.3333 60.0938 55.776 59.8334L85.776 42.3282V71.5521C85.776 71.9375 85.7396 72.3125 85.6667 72.6875C85.5885 73.0625 85.4792 73.4271 85.3333 73.7813C85.1875 74.1355 85.0052 74.4688 84.7917 74.7865C84.5833 75.1042 84.3385 75.4011 84.0677 75.6667C83.7969 75.9375 83.5052 76.1823 83.1875 76.3907C82.8698 76.6042 82.5365 76.7865 82.1823 76.9323C81.8281 77.0782 81.4635 77.1875 81.0885 77.2657C80.7135 77.3386 80.3333 77.375 79.9531 77.375Z" fill="#8EC544"/>
<mask id="mask0_89_18" style="mask-type:luminance" maskUnits="userSpaceOnUse" x="0" y="0" width="109" height="109">
<path d="M0 0.177124H108.667V108.844H0V0.177124Z" fill="white"/>
</mask>
<g mask="url(#mask0_89_18)">
<path d="M54.3281 0.177124C52.5469 0.177124 50.7708 0.265666 49 0.437541C47.2292 0.614625 45.474 0.875041 43.7292 1.21879C41.9844 1.56775 40.2604 2.00004 38.5573 2.51567C36.8542 3.03129 35.1823 3.63025 33.5365 4.31254C31.8906 4.99483 30.2865 5.75525 28.7188 6.59379C27.1458 7.43233 25.625 8.34379 24.1458 9.33337C22.6667 10.323 21.2396 11.3802 19.8594 12.5105C18.4844 13.6355 17.1719 14.8334 15.9115 16.0886C14.651 17.349 13.4583 18.6615 12.3333 20.0417C11.2031 21.4167 10.1458 22.8438 9.15625 24.323C8.16667 25.8021 7.25521 27.323 6.41667 28.8959C5.57813 30.4636 4.81771 32.0677 4.13542 33.7136C3.45313 35.3594 2.85417 37.0313 2.33854 38.7344C1.82292 40.4375 1.39063 42.1615 1.04167 43.9063C0.697917 45.6511 0.4375 47.4063 0.260416 49.1771C0.0885416 50.948 0 52.724 0 54.5053C0 56.2813 0.0885416 58.0573 0.260416 59.8282C0.4375 61.599 0.697917 63.3542 1.04167 65.1042C1.39063 66.849 1.82292 68.573 2.33854 70.2709C2.85417 71.974 3.45313 73.6511 4.13542 75.2917C4.81771 76.9375 5.57813 78.5417 6.41667 80.1146C7.25521 81.6823 8.16667 83.2084 9.15625 84.6875C10.1458 86.1667 11.2031 87.5938 12.3333 88.9688C13.4583 90.3438 14.651 91.6615 15.9115 92.9167C17.1719 94.1771 18.4844 95.3698 19.8594 96.5C21.2396 97.625 22.6667 98.6875 24.1458 99.6719C25.625 100.662 27.1458 101.578 28.7188 102.417C30.2865 103.255 31.8906 104.016 33.5365 104.693C35.1823 105.375 36.8542 105.974 38.5573 106.49C40.2604 107.005 41.9844 107.438 43.7292 107.787C45.474 108.13 47.2292 108.396 49 108.568C50.7708 108.74 52.5469 108.828 54.3281 108.828C56.1042 108.828 57.8802 108.74 59.651 108.568C61.4219 108.396 63.1771 108.13 64.9271 107.787C66.6719 107.438 68.3958 107.005 70.0938 106.49C71.7969 105.974 73.474 105.375 75.1146 104.693C76.7604 104.016 78.3646 103.255 79.9375 102.417C81.5052 101.578 83.026 100.662 84.5104 99.6719C85.9896 98.6875 87.4167 97.625 88.7917 96.5C90.1667 95.3698 91.4844 94.1771 92.7396 92.9167C94 91.6615 95.1927 90.3438 96.3229 88.9688C97.4479 87.5938 98.5104 86.1667 99.4948 84.6875C100.484 83.2084 101.401 81.6823 102.24 80.1146C103.078 78.5417 103.833 76.9375 104.516 75.2917C105.198 73.6511 105.797 71.974 106.313 70.2709C106.828 68.573 107.26 66.849 107.609 65.1042C107.953 63.3542 108.214 61.599 108.391 59.8282C108.563 58.0573 108.651 56.2813 108.651 54.5053C108.651 52.724 108.563 50.948 108.385 49.1823C108.208 47.4115 107.948 45.6511 107.599 43.9115C107.25 42.1667 106.818 40.4427 106.297 38.7396C105.781 37.0365 105.182 35.3646 104.5 33.724C103.818 32.0782 103.057 30.474 102.219 28.9063C101.38 27.3386 100.469 25.8125 99.4792 24.3334C98.4896 22.8594 97.4323 21.4323 96.3021 20.0573C95.1719 18.6823 93.9792 17.3646 92.724 16.1042C91.4635 14.849 90.151 13.6563 88.776 12.5261C87.401 11.3959 85.974 10.3386 84.4948 9.349C83.0156 8.36462 81.4896 7.44796 79.9219 6.60942C78.3542 5.77087 76.75 5.01046 75.1042 4.32817C73.4635 3.64587 71.7917 3.04691 70.0885 2.53129C68.3854 2.01046 66.6667 1.57817 64.9219 1.22921C63.1771 0.880249 61.4167 0.619833 59.651 0.442749C57.8802 0.265666 56.1042 0.177124 54.3281 0.177124ZM54.3281 103.109C52.7344 103.109 51.1458 103.031 49.5625 102.875C47.9792 102.719 46.4063 102.49 44.8438 102.177C43.2813 101.865 41.7396 101.479 40.2135 101.016C38.6927 100.557 37.1979 100.021 35.724 99.4115C34.2552 98.8021 32.8177 98.1198 31.4115 97.3698C30.0104 96.6198 28.6458 95.8021 27.3229 94.9167C26 94.0365 24.7187 93.0886 23.4896 92.0782C22.2604 91.0678 21.0833 90 19.9531 88.875C18.8281 87.75 17.7604 86.5678 16.75 85.3386C15.7396 84.1094 14.7969 82.8334 13.9115 81.5105C13.026 80.1823 12.2083 78.823 11.4583 77.4167C10.7083 76.0105 10.026 74.573 9.41667 73.1042C8.80729 71.6355 8.27604 70.1355 7.8125 68.6146C7.34896 67.0886 6.96354 65.5469 6.65104 63.9844C6.34375 62.4271 6.10938 60.8542 5.95313 59.2657C5.79688 57.6823 5.71875 56.0938 5.71875 54.5053C5.71875 52.9115 5.79688 51.323 5.95313 49.7396C6.10938 48.1563 6.34375 46.5834 6.65104 45.0209C6.96354 43.4584 7.34896 41.9167 7.8125 40.3907C8.27604 38.8698 8.80729 37.375 9.41667 35.9011C10.026 34.4323 10.7083 32.9948 11.4583 31.5886C12.2083 30.1875 13.026 28.823 13.9115 27.5C14.7969 26.1771 15.7396 24.8959 16.75 23.6667C17.7604 22.4375 18.8281 21.2605 19.9531 20.1302C21.0833 19.0052 22.2604 17.9375 23.4896 16.9271C24.7187 15.9167 26 14.974 27.3229 14.0886C28.6458 13.2032 30.0104 12.3855 31.4115 11.6355C32.8177 10.8855 34.2552 10.2032 35.724 9.59379C37.1979 8.98442 38.6927 8.45317 40.2135 7.98962C41.7396 7.52608 43.2813 7.14067 44.8438 6.82817C46.4063 6.52087 47.9792 6.2865 49.5625 6.13025C51.1458 5.974 52.7344 5.89587 54.3281 5.89587C55.9167 5.89587 57.5052 5.974 59.0885 6.13025C60.6771 6.2865 62.25 6.52087 63.8073 6.82817C65.3698 7.14067 66.9115 7.52608 68.4375 7.98962C69.9583 8.45317 71.4583 8.98442 72.9271 9.59379C74.3958 10.2032 75.8333 10.8855 77.2396 11.6355C78.6458 12.3855 80.0052 13.2032 81.3333 14.0886C82.6563 14.974 83.9323 15.9167 85.1615 16.9271C86.3906 17.9375 87.5729 19.0052 88.6979 20.1302C89.8229 21.2605 90.8906 22.4375 91.901 23.6667C92.9115 24.8959 93.8594 26.1771 94.7396 27.5C95.625 28.823 96.4427 30.1875 97.1927 31.5886C97.9427 32.9948 98.625 34.4323 99.2344 35.9011C99.8438 37.375 100.38 38.8698 100.839 40.3907C101.302 41.9167 101.688 43.4584 102 45.0209C102.313 46.5834 102.542 48.1563 102.698 49.7396C102.854 51.323 102.932 52.9115 102.932 54.5053C102.932 56.0938 102.854 57.6823 102.693 59.2657C102.536 60.849 102.302 62.4219 101.99 63.9844C101.677 65.5417 101.292 67.0834 100.828 68.6094C100.365 70.1303 99.8281 71.625 99.2188 73.0938C98.6094 74.5678 97.9271 76.0053 97.1771 77.4063C96.4271 78.8073 95.6094 80.1719 94.724 81.4948C93.8385 82.8178 92.8958 84.0938 91.8854 85.323C90.875 86.5573 89.8073 87.7344 88.6823 88.8594C87.5573 89.9844 86.3802 91.0521 85.1458 92.0625C83.9167 93.073 82.6406 94.0157 81.3177 94.9011C79.9948 95.7865 78.6302 96.6042 77.2292 97.3542C75.8229 98.1042 74.3906 98.7865 72.9167 99.3959C71.4479 100.005 69.9531 100.542 68.4323 101.005C66.9063 101.469 65.3646 101.854 63.8073 102.167C62.2448 102.479 60.6719 102.714 59.0885 102.87C57.5052 103.031 55.9167 103.109 54.3281 103.109Z" fill="#8EC544"/>
</g>
</svg>
