<svg width="108" height="86" viewBox="0 0 108 86" fill="none" xmlns="http://www.w3.org/2000/svg">
<mask id="mask0_89_17" style="mask-type:luminance" maskUnits="userSpaceOnUse" x="0" y="0" width="108" height="44">
<path d="M0 0.322876H108V44H0V0.322876Z" fill="white"/>
</mask>
<g mask="url(#mask0_89_17)">
<path d="M0.916628 34.0521C1.75517 43.3489 7.8385 43.2031 12.776 42.5104C18.1198 41.7656 27.0781 37.9583 26.6718 33.4792C26.2395 28.5885 26.4791 22.6979 29.6406 20.8542C34.9843 17.7604 46.1198 18.0521 54.3385 18.0521C62.5573 18.0521 73.6927 17.7604 79.0364 20.8542C82.1979 22.6979 82.4375 28.5885 82.0052 33.4792C81.5989 37.9583 90.5573 41.7656 95.901 42.5104C100.833 43.2031 106.922 43.3489 107.76 34.0521C108.599 24.7552 103.781 7.03124 74.75 1.68748C67.3229 0.322902 62.1718 0.416651 54.3385 0.416651C46.5052 0.416651 41.3541 0.322902 33.927 1.68748C4.8958 7.03124 0.0572527 24.7344 0.916628 34.0521Z" fill="#8EC544"/>
</g>
<path d="M77.7441 39.7292C75.7284 31.875 76.567 22.6719 76.567 22.6719H64.7076C64.7076 35.875 54.3378 35.0365 54.3378 35.0365C54.3378 35.0365 43.9628 35.875 43.9628 22.6719H32.1087C32.1087 22.6719 32.9472 31.875 30.9316 39.7292C28.9212 47.5885 17.4003 48.2344 17.7337 68.2865C18.067 88.3333 19.4107 85.3646 35.4368 85.3646C51.4628 85.3646 54.3378 85.5104 54.3378 85.5104C54.3378 85.5104 57.1868 85.3646 73.2389 85.3646C89.2857 85.3646 90.6034 88.3333 90.942 68.2865C91.2753 48.2344 79.7545 47.5625 77.7441 39.7292ZM54.3378 72.8854C53.4368 72.8854 52.5409 72.7969 51.6607 72.6198C50.7753 72.4427 49.9159 72.1823 49.0826 71.8385C48.2493 71.4948 47.4628 71.0729 46.7128 70.5729C45.9628 70.0677 45.2701 69.5 44.6295 68.8646C43.9941 68.224 43.4264 67.5313 42.9264 66.7813C42.4212 66.0365 41.9993 65.2448 41.6555 64.4115C41.3118 63.5781 41.0514 62.7188 40.8743 61.8333C40.6972 60.9531 40.6087 60.0573 40.6087 59.1563C40.6087 58.2552 40.6972 57.3646 40.8743 56.4792C41.0514 55.5938 41.3118 54.7396 41.6555 53.9063C41.9993 53.0729 42.4212 52.2813 42.9264 51.5313C43.4264 50.7813 43.9941 50.0885 44.6295 49.4531C45.2701 48.8125 45.9628 48.2448 46.7128 47.7448C47.4628 47.2448 48.2493 46.8229 49.0826 46.474C49.9159 46.1302 50.7753 45.8698 51.6607 45.6927C52.5409 45.5208 53.4368 45.4323 54.3378 45.4323C55.2389 45.4323 56.1295 45.5208 57.0149 45.6927C57.9003 45.8698 58.7597 46.1302 59.5878 46.474C60.4212 46.8229 61.2128 47.2448 61.9628 47.7448C62.7128 48.2448 63.4055 48.8125 64.0409 49.4531C64.6816 50.0885 65.2493 50.7813 65.7493 51.5313C66.2493 52.2813 66.6764 53.0729 67.0201 53.9063C67.3639 54.7396 67.6243 55.5938 67.8014 56.4792C67.9732 57.3646 68.0618 58.2552 68.0618 59.1563C68.0618 60.0573 67.9732 60.9531 67.8014 61.8333C67.6243 62.7188 67.3639 63.5781 67.0201 64.4115C66.6764 65.2448 66.2493 66.0365 65.7493 66.7813C65.2493 67.5313 64.6816 68.224 64.0409 68.8646C63.4055 69.5 62.7128 70.0677 61.9628 70.5729C61.2128 71.0729 60.4212 71.4948 59.5878 71.8385C58.7597 72.1823 57.9003 72.4427 57.0149 72.6198C56.1295 72.7969 55.2389 72.8854 54.3378 72.8854Z" fill="#8EC544"/>
</svg>
